<svg xmlns="http://www.w3.org/2000/svg" xmlns:xlink="http://www.w3.org/1999/xlink" width="500" zoomAndPan="magnify" viewBox="0 0 375 374.999991" height="500" preserveAspectRatio="xMidYMid meet" version="1.0"><defs><clipPath id="94900fb543"><path d="M 85.5 38.4375 L 289.386719 38.4375 L 289.386719 336.523438 L 85.5 336.523438 Z M 85.5 38.4375 " clip-rule="nonzero"/></clipPath></defs><g clip-path="url(#94900fb543)"><path fill="#100f0d" d="M 280.230469 152.417969 L 271.300781 122.835938 L 287.660156 147.628906 Z M 283.636719 190.085938 L 277.15625 189.019531 L 238.257812 142.046875 L 279.167969 154.097656 Z M 261.546875 249.511719 L 255.019531 235.136719 L 247.769531 187.441406 L 275.878906 190.308594 Z M 234.160156 283.324219 L 219.589844 282.210938 L 251.644531 240.058594 Z M 206.785156 333.550781 L 193.714844 305.636719 L 205.300781 250.097656 L 217.472656 282.871094 Z M 152.207031 244.15625 L 159.664062 272.742188 L 150.707031 281.101562 Z M 147.882812 159.664062 L 178.046875 159.664062 L 189.078125 181.066406 L 185.882812 196.433594 L 165.742188 178.964844 Z M 97.519531 158.71875 L 96.589844 154.921875 L 118.351562 152.042969 L 142.886719 158.765625 L 106.734375 164.753906 Z M 88.050781 140.621094 L 94.113281 137.230469 L 100.117188 140.996094 L 95.375 153.183594 L 87 147.042969 Z M 159.769531 60.183594 L 174.296875 63.484375 L 174.296875 70.851562 L 162.816406 71.753906 Z M 165.53125 43.285156 L 172.195312 53.835938 C 172.210938 53.851562 172.226562 53.863281 172.242188 53.894531 L 176.15625 58.832031 L 174.613281 62.074219 L 159.738281 58.699219 Z M 195.277344 40.296875 L 201.519531 60.0625 L 182.910156 49.03125 Z M 239.546875 96.53125 L 207.042969 76.359375 L 246.253906 92.269531 Z M 267.925781 118.320312 L 236.425781 139.675781 L 224.03125 118.320312 L 239.699219 98.375 Z M 268.796875 119.476562 L 278.746094 152.476562 L 237.867188 140.441406 Z M 247.1875 185.941406 L 224.074219 168.429688 L 236.367188 142.03125 L 275.097656 188.792969 Z M 225.050781 170.980469 L 246.253906 187.039062 L 252.859375 230.5 Z M 210.238281 218.328125 L 216.84375 277.050781 L 205.839844 247.425781 Z M 204.804688 244.664062 L 187.757812 199.523438 L 209.546875 213.164062 Z M 163.371094 240.613281 L 177 305.742188 L 161.210938 272.832031 Z M 162.292969 235.300781 L 160.054688 268.511719 L 152.429688 239.351562 L 163.910156 211.214844 Z M 204.128906 247.964844 L 179.144531 308.96875 L 163.957031 236.351562 Z M 202.660156 246.046875 L 163.761719 234.804688 L 165.53125 208.46875 Z M 185.71875 198.203125 L 203.230469 244.574219 L 165.894531 206.785156 L 178.484375 191.914062 Z M 223.324219 170.695312 L 252.785156 233.738281 L 211.199219 212.445312 Z M 190.460938 181.5 L 222.078125 169.824219 L 209.910156 211.695312 L 187.144531 197.4375 Z M 220.609375 168.835938 L 190.1875 180.058594 L 179.820312 159.964844 Z M 208.46875 137.722656 L 221.929688 167.648438 L 180.195312 158.570312 Z M 148.933594 141.417969 L 181.050781 141.417969 L 146.171875 158.179688 L 120.828125 151.230469 Z M 101.617188 141.117188 L 125.972656 119.386719 L 144.507812 114.671875 C 144.523438 114.671875 144.523438 114.660156 144.539062 114.660156 C 144.539062 114.660156 144.554688 114.660156 144.554688 114.660156 L 154.894531 111.253906 L 148.199219 140.15625 L 118.246094 150.617188 L 96.816406 153.4375 Z M 100.925781 139.796875 L 95.539062 136.417969 L 120.226562 122.582031 Z M 150.929688 93.84375 L 133.867188 98.269531 L 158.015625 75.414062 Z M 194.359375 86.941406 L 184.785156 95.78125 L 175.960938 77.199219 L 201.566406 63.125 Z M 216.179688 96.484375 L 195.863281 86.941406 L 199.898438 73.613281 L 236.996094 96.648438 Z M 184.90625 140.921875 C 184.921875 140.890625 184.921875 140.859375 184.921875 140.832031 C 184.921875 140.816406 184.9375 140.800781 184.9375 140.769531 C 184.9375 140.710938 184.9375 140.636719 184.921875 140.5625 L 181.078125 120.601562 L 207.460938 136.675781 L 179.835938 157.054688 Z M 179.429688 119.6875 L 183.347656 139.976562 L 149.714844 139.976562 L 156.394531 111.132812 Z M 179.984375 118.351562 L 157.757812 110.097656 L 184.710938 97.6875 L 213.480469 97.910156 Z M 195.125 88.1875 L 212.730469 96.457031 L 186.390625 96.261719 Z M 143.773438 104.828125 L 133.417969 99.875 L 151.53125 95.164062 L 181.742188 97.476562 L 155.851562 109.390625 Z M 144.644531 113.113281 L 142.542969 109.675781 L 143.878906 106.417969 L 153.722656 110.125 Z M 222.589844 117.824219 L 208.589844 135.667969 L 181.441406 119.144531 L 216.210938 97.925781 L 238.09375 98.089844 Z M 223.175781 166.929688 L 209.59375 136.71875 L 223.085938 119.535156 L 235.390625 140.726562 Z M 181.90625 50.113281 L 201.308594 61.625 L 175.738281 75.683594 L 175.738281 63.0625 Z M 174.296875 72.308594 L 174.296875 76.902344 C 174.296875 76.902344 174.296875 76.914062 174.296875 76.929688 C 174.296875 76.960938 174.296875 76.992188 174.3125 77.019531 C 174.3125 77.035156 174.3125 77.066406 174.328125 77.082031 C 174.328125 77.109375 174.34375 77.140625 174.355469 77.171875 C 174.355469 77.171875 174.355469 77.1875 174.371094 77.199219 L 183.375 96.15625 L 152.492188 93.800781 L 160.339844 73.390625 Z M 131.78125 100.6875 L 142.558594 105.847656 L 141.070312 109.464844 C 140.996094 109.675781 141.011719 109.917969 141.132812 110.113281 L 143.203125 113.519531 L 126.679688 117.71875 Z M 149.398438 158.222656 L 183.03125 142.0625 L 177.957031 158.222656 Z M 165.953125 181.035156 L 177.386719 190.96875 L 165.667969 204.820312 Z M 192.335938 305.203125 L 180.238281 310.109375 L 202.796875 255.035156 Z M 211.199219 214.066406 L 253.234375 235.585938 L 218.734375 280.953125 Z M 289.265625 147.449219 L 269.800781 117.929688 C 269.785156 117.929688 269.785156 117.914062 269.773438 117.914062 C 269.742188 117.855469 269.683594 117.808594 269.636719 117.765625 C 269.621094 117.765625 269.621094 117.75 269.605469 117.75 L 240.851562 97.414062 L 248.207031 92.734375 C 248.433594 92.582031 248.566406 92.328125 248.535156 92.058594 C 248.523438 91.789062 248.339844 91.5625 248.085938 91.457031 L 200.347656 72.097656 L 203.457031 61.847656 C 203.46875 61.789062 203.484375 61.730469 203.484375 61.652344 C 203.484375 61.625 203.484375 61.609375 203.484375 61.59375 C 203.46875 61.546875 203.46875 61.488281 203.457031 61.445312 C 203.457031 61.445312 203.457031 61.429688 203.457031 61.429688 L 196.355469 38.933594 C 196.28125 38.707031 196.117188 38.542969 195.890625 38.46875 C 195.683594 38.394531 195.441406 38.421875 195.246094 38.558594 L 181.183594 48.507812 C 181.171875 48.507812 181.171875 48.507812 181.171875 48.507812 C 181.125 48.539062 181.09375 48.582031 181.050781 48.613281 C 181.035156 48.628906 181.035156 48.644531 181.019531 48.65625 C 181.003906 48.671875 180.988281 48.703125 180.976562 48.71875 C 180.960938 48.734375 180.960938 48.746094 180.960938 48.761719 C 180.960938 48.761719 180.945312 48.777344 180.945312 48.777344 L 176.847656 57.390625 L 173.394531 53.023438 L 165.96875 41.289062 C 165.832031 41.050781 165.5625 40.929688 165.292969 40.960938 C 165.023438 40.988281 164.78125 41.167969 164.691406 41.425781 L 158.105469 58.96875 C 158.105469 58.984375 158.105469 58.984375 158.089844 58.996094 C 158.089844 59.011719 158.074219 59.042969 158.074219 59.058594 C 158.058594 59.101562 158.058594 59.132812 158.058594 59.164062 C 158.058594 59.175781 158.058594 59.175781 158.058594 59.191406 C 158.058594 59.253906 158.058594 59.328125 158.074219 59.386719 C 158.074219 59.386719 158.074219 59.402344 158.074219 59.402344 L 161.359375 71.859375 L 159.769531 71.992188 C 159.769531 71.992188 159.753906 71.992188 159.753906 71.992188 C 159.605469 72.007812 159.453125 72.070312 159.351562 72.171875 C 159.351562 72.171875 159.335938 72.171875 159.335938 72.1875 L 130.835938 99.140625 C 130.835938 99.15625 130.820312 99.171875 130.804688 99.1875 C 130.792969 99.203125 130.777344 99.214844 130.761719 99.230469 C 130.746094 99.277344 130.714844 99.304688 130.703125 99.351562 C 130.6875 99.382812 130.671875 99.398438 130.671875 99.410156 C 130.65625 99.425781 130.65625 99.441406 130.640625 99.457031 L 125.011719 118.230469 L 87.046875 139.539062 C 86.851562 139.644531 86.714844 139.839844 86.6875 140.050781 L 85.515625 147.253906 C 85.46875 147.523438 85.574219 147.792969 85.800781 147.960938 L 95.058594 154.742188 L 96.183594 159.335938 C 96.230469 159.515625 96.335938 159.664062 96.484375 159.769531 L 106.179688 166.117188 C 106.328125 166.207031 106.523438 166.253906 106.703125 166.222656 L 145.976562 159.710938 L 164.527344 179.757812 L 164.195312 206.667969 L 151.003906 239.039062 C 150.976562 239.113281 150.960938 239.171875 150.960938 239.246094 C 150.960938 239.261719 150.960938 239.261719 150.960938 239.277344 L 149.191406 282.796875 C 149.175781 283.082031 149.339844 283.351562 149.609375 283.472656 C 149.878906 283.59375 150.179688 283.546875 150.40625 283.351562 L 160.25 274.167969 L 178.273438 311.730469 C 178.273438 311.746094 178.289062 311.746094 178.289062 311.761719 C 178.304688 311.777344 178.304688 311.792969 178.320312 311.792969 C 178.347656 311.851562 178.394531 311.910156 178.4375 311.957031 C 178.4375 311.957031 178.453125 311.957031 178.453125 311.957031 C 178.5 312 178.558594 312.03125 178.617188 312.0625 C 178.617188 312.0625 178.632812 312.078125 178.648438 312.078125 C 178.707031 312.105469 178.769531 312.121094 178.828125 312.121094 C 178.84375 312.121094 178.84375 312.136719 178.859375 312.136719 C 178.875 312.136719 178.902344 312.136719 178.917969 312.136719 C 178.980469 312.136719 179.039062 312.121094 179.113281 312.105469 C 179.128906 312.105469 179.144531 312.105469 179.160156 312.089844 C 179.160156 312.089844 179.175781 312.089844 179.1875 312.078125 L 192.589844 306.660156 L 206.398438 336.101562 C 206.515625 336.359375 206.773438 336.523438 207.058594 336.523438 C 207.085938 336.523438 207.117188 336.523438 207.132812 336.523438 C 207.449219 336.476562 207.703125 336.253906 207.761719 335.953125 L 218.792969 283.59375 L 234.582031 284.808594 C 234.894531 284.839844 235.179688 284.644531 235.300781 284.359375 L 254.375 237.160156 L 261.097656 252.003906 C 261.234375 252.289062 261.519531 252.453125 261.832031 252.421875 C 262.132812 252.394531 262.386719 252.167969 262.464844 251.867188 L 277.320312 190.503906 L 284.34375 191.660156 C 284.570312 191.691406 284.792969 191.613281 284.957031 191.464844 C 285.125 191.316406 285.214844 191.074219 285.183594 190.847656 L 280.59375 153.902344 L 289.054688 148.453125 C 289.222656 148.347656 289.339844 148.183594 289.371094 147.988281 C 289.414062 147.808594 289.371094 147.613281 289.265625 147.449219 " fill-opacity="1" fill-rule="nonzero"/></g></svg>